<svg width="41" height="40" viewBox="0 0 41 40" fill="none" xmlns="http://www.w3.org/2000/svg">
<path opacity="0.21" fill-rule="evenodd" clip-rule="evenodd" d="M40.5 20C40.5 31.0457 31.5457 40 20.5 40C9.45431 40 0.5 31.0457 0.5 20C0.5 8.95431 9.45431 0 20.5 0C31.5457 0 40.5 8.95431 40.5 20Z" fill="#8280FF"/>
<path opacity="0.587821" fill-rule="evenodd" clip-rule="evenodd" d="M14.2773 15.5556C14.2773 17.5192 15.8692 19.1111 17.8329 19.1111C19.7966 19.1111 21.3885 17.5192 21.3885 15.5556C21.3885 13.5919 19.7966 12 17.8329 12C15.8692 12 14.2773 13.5919 14.2773 15.5556ZM23.1662 19.1111C23.1662 20.5839 24.3601 21.7778 25.8329 21.7778C27.3057 21.7778 28.4996 20.5839 28.4996 19.1111C28.4996 17.6384 27.3057 16.4444 25.8329 16.4444C24.3601 16.4444 23.1662 17.6384 23.1662 19.1111Z" fill="#8280FF"/>
<path fill-rule="evenodd" clip-rule="evenodd" d="M17.8182 20.8887C13.6214 20.8887 10.1781 23.0456 9.83359 27.288C9.81482 27.5191 10.2568 27.9998 10.4797 27.9998H25.1634C25.8312 27.9998 25.8415 27.4624 25.8312 27.2887C25.5707 22.9271 22.0741 20.8887 17.8182 20.8887ZM30.6827 27.9998L27.2552 27.9998C27.2552 25.999 26.5942 24.1525 25.4785 22.667C28.5065 22.7001 30.9789 24.231 31.165 27.4664C31.1725 27.5968 31.165 27.9998 30.6827 27.9998Z" fill="#8280FF"/>
</svg>
