<svg width="41" height="40" viewBox="0 0 41 40" fill="none" xmlns="http://www.w3.org/2000/svg">
<path opacity="0.3" fill-rule="evenodd" clip-rule="evenodd" d="M40.5 20C40.5 31.0457 31.5457 40 20.5 40C9.45431 40 0.5 31.0457 0.5 20C0.5 8.95431 9.45431 0 20.5 0C31.5457 0 40.5 8.95431 40.5 20Z" fill="#FF9066"/>
<path opacity="0.78" fill-rule="evenodd" clip-rule="evenodd" d="M19.5765 16.0132C19.5959 15.7602 19.8068 15.5649 20.0605 15.5649C20.3099 15.5649 20.5187 15.7539 20.5436 16.0021L20.9443 20.0094L23.8184 21.6517C23.9649 21.7355 24.0554 21.8913 24.0554 22.0602C24.0554 22.3703 23.7605 22.5956 23.4612 22.514L19.5652 21.4514C19.3338 21.3883 19.1798 21.1698 19.1982 20.9307L19.5765 16.0132Z" fill="#FF9066"/>
<path opacity="0.901274" fill-rule="evenodd" clip-rule="evenodd" d="M15.8611 10.2434C15.597 9.92863 15.087 10.0491 14.9917 10.4488L14.0315 14.4742C13.9539 14.7999 14.2119 15.1084 14.5462 15.0894L18.6872 14.8548C19.0981 14.8315 19.3065 14.3495 19.042 14.0342L18.0547 12.8577C18.8313 12.5923 19.6548 12.4537 20.5003 12.4537C24.6731 12.4537 28.0559 15.8364 28.0559 20.0093C28.0559 24.1821 24.6731 27.5648 20.5003 27.5648C16.3275 27.5648 12.9448 24.1821 12.9448 20.0093C12.9448 19.3087 13.0396 18.6226 13.2246 17.9632L11.5129 17.4831C11.2875 18.2865 11.167 19.1338 11.167 20.0093C11.167 25.1639 15.3457 29.3426 20.5003 29.3426C25.655 29.3426 29.8337 25.1639 29.8337 20.0093C29.8337 14.8546 25.655 10.6759 20.5003 10.6759C19.2037 10.6759 17.9689 10.9403 16.8468 11.4181L15.8611 10.2434Z" fill="#FF9066"/>
</svg>
