<svg width="18" height="17" viewBox="0 0 18 17" fill="none" xmlns="http://www.w3.org/2000/svg">
<path d="M6.94519 3.53383C7.58726 1.93314 7.9083 1.1328 8.42987 1.02187C8.56702 0.992708 8.70876 0.992708 8.84591 1.02187C9.36749 1.1328 9.68853 1.93314 10.3306 3.53383C10.6957 4.44411 10.8783 4.89925 11.2199 5.20882C11.3157 5.29565 11.4197 5.37298 11.5305 5.43973C11.9253 5.6777 12.4182 5.72185 13.404 5.81013C15.0728 5.95958 15.9072 6.03431 16.162 6.51005C16.2147 6.60858 16.2506 6.71526 16.2681 6.82566C16.3526 7.35868 15.7392 7.91674 14.5124 9.03286L14.1717 9.3428C13.5982 9.86461 13.3114 10.1255 13.1455 10.4511C13.046 10.6464 12.9793 10.8568 12.948 11.0737C12.8959 11.4354 12.9799 11.8139 13.1479 12.5709L13.2079 12.8414C13.5091 14.1989 13.6597 14.8777 13.4717 15.2113C13.3028 15.511 12.9918 15.7029 12.6482 15.7193C12.2656 15.7375 11.7267 15.2983 10.6487 14.4199C9.93847 13.8412 9.58336 13.5519 9.18915 13.4388C8.8289 13.3355 8.44688 13.3355 8.08663 13.4388C7.69242 13.5519 7.33732 13.8412 6.62711 14.4199C5.54913 15.2983 5.01015 15.7375 4.62762 15.7193C4.28402 15.7029 3.97298 15.511 3.80411 15.2113C3.61612 14.8777 3.76672 14.1989 4.06791 12.8414L4.12792 12.5709C4.29587 11.8139 4.37985 11.4354 4.32774 11.0737C4.29648 10.8568 4.22976 10.6464 4.13026 10.4511C3.96439 10.1255 3.67762 9.86461 3.10407 9.3428L2.7634 9.03286C1.53661 7.91674 0.923214 7.35868 1.00769 6.82566C1.02518 6.71526 1.06106 6.60858 1.11383 6.51005C1.36863 6.03431 2.20301 5.95958 3.87177 5.81013C4.85756 5.72185 5.35045 5.6777 5.74529 5.43973C5.85604 5.37298 5.96005 5.29565 6.05587 5.20882C6.39748 4.89925 6.58005 4.44411 6.94519 3.53383Z" fill="#DD4949" stroke="#232323" stroke-width="2"/>
</svg>
